<svg aria-hidden="true" style="position: absolute; width: 0; height: 0; overflow: hidden;" version="1.1" xmlns="http://www.w3.org/2000/svg" xmlns:xlink="http://www.w3.org/1999/xlink">
<defs>
<linearGradient id="gradient1" x1="4.65088" y1="7.6851" x2="13.034" y2="7.68731" gradientUnits="userSpaceOnUse">
<stop stop-color="#00C5EB"/>
<stop offset="1" stop-color="#B544FE"/>
</linearGradient>
<symbol id="icon-linkedin" viewBox="0 0 32 32">
<path stroke="url(#gradient1)" stroke-linejoin="miter" stroke-linecap="butt" stroke-miterlimit="4" stroke-width="1.6" d="M29.199 17.731v9.469h-4.197v-8.3c0-1.050-0.001-2.449-0.45-3.583-0.234-0.59-0.602-1.149-1.184-1.555-0.583-0.407-1.313-0.612-2.184-0.612-0.858 0-1.593 0.168-2.205 0.506-0.616 0.341-1.058 0.829-1.368 1.39-0.599 1.085-0.708 2.464-0.708 3.698v8.456h-4.199v-17.094h3.967v2.55h1.363l0.225-0.427c0.643-1.219 2.271-2.592 4.784-2.592 2.74 0 4.183 0.885 5.004 2.189 0.874 1.389 1.151 3.41 1.151 5.905zM7.468 27.2h-4.205v-17.094h4.205v17.094zM5.362 5.956c-1.404 0-2.562-1.17-2.562-2.594 0-0.679 0.27-1.331 0.75-1.812s1.132-0.75 1.812-0.75c0.679 0 1.331 0.27 1.812 0.75s0.75 1.132 0.75 1.812c0 1.424-1.158 2.594-2.562 2.594z"></path>
</symbol>
<symbol  id="icon-facebook" viewBox="0 0 32 32">
<path stroke="url(#gradient1)" stroke-linejoin="round" stroke-linecap="round" stroke-miterlimit="4" stroke-width="1.6" d="M22.4 2.667h-4c-1.768 0-3.464 0.702-4.714 1.953s-1.953 2.946-1.953 4.714v4h-4v5.333h4v10.667h5.333v-10.667h4l1.333-5.333h-5.333v-4c0-0.354 0.14-0.693 0.391-0.943s0.589-0.391 0.943-0.391h4v-5.333z"></path>
</symbol>
<symbol id="icon-twitter" viewBox="0 0 32 32">
<path stroke="url(#gradient1)" stroke-linejoin="round" stroke-linecap="round" stroke-miterlimit="4" stroke-width="1.6" d="M30.134 5.599c-1.184 0.835-2.495 1.474-3.882 1.892-0.744-0.856-1.734-1.463-2.835-1.738s-2.26-0.206-3.32 0.198c-1.060 0.405-1.97 1.125-2.608 2.064s-0.971 2.051-0.956 3.185v1.236c-2.173 0.056-4.326-0.426-6.267-1.403s-3.611-2.419-4.86-4.198c0 0-4.945 11.127 6.182 16.073-2.546 1.728-5.58 2.595-8.655 2.473 11.127 6.182 24.727 0 24.727-14.218-0.001-0.344-0.034-0.688-0.099-1.026 1.262-1.244 2.152-2.816 2.572-4.537z"></path>
</symbol>
<symbol id="icon-apple" viewBox="0 0 27 32">
<path fill="#fff" style="fill: var(--color1, #fff)" d="M20.372 7.314c-2.881 0-4.098 1.384-6.104 1.384-2.057 0-3.626-1.374-6.122-1.374-2.443 0-5.049 1.502-6.704 4.061-2.323 3.608-1.929 10.404 1.834 16.193 1.346 2.072 3.143 4.397 5.501 4.422h0.043c2.049 0 2.658-1.351 5.478-1.367h0.043c2.778 0 3.335 1.359 5.375 1.359h0.043c2.358-0.025 4.252-2.6 5.598-4.665 0.969-1.485 1.329-2.23 2.072-3.91-5.443-2.080-6.318-9.85-0.934-12.829-1.643-2.072-3.952-3.272-6.129-3.272l0.007-0.003z"></path>
<path fill="#fff" style="fill: var(--color1, #fff)" d="M20.055 0c-1.658 0.111-3.593 1.148-4.726 2.502-1.028 1.227-1.874 3.047-1.542 4.813h0.133c1.766 0 3.573-1.045 4.629-2.383 1.017-1.274 1.788-3.079 1.506-4.931z"></path>
</symbol>
<symbol id="icon-android" viewBox="0 0 28 32">
<path fill="#fff" style="fill: var(--color1, #fff)" d="M5.26 24.204c0 0.836 0.708 1.518 1.578 1.518h1.804v4.3c0 1.089 0.908 1.979 2.023 1.979 1.119 0 2.023-0.886 2.023-1.979v-4.303h3.149v4.3c0 1.089 0.908 1.979 2.023 1.979 1.119 0 2.023-0.886 2.023-1.979v-4.3h1.804c0.871 0 1.578-0.682 1.578-1.518v-14.114h-18.005v14.117zM18.49 2.773l1.663-2.321c0.096-0.136 0.074-0.318-0.056-0.407-0.13-0.086-0.315-0.043-0.411 0.093l-1.726 2.414c-1.137-0.432-2.404-0.671-3.734-0.671s-2.597 0.239-3.734 0.671l-1.726-2.411c-0.096-0.136-0.282-0.182-0.411-0.093-0.13 0.086-0.152 0.264-0.056 0.407l1.663 2.321c-2.645 1.186-4.497 3.432-4.735 6.057h18.005c-0.245-2.628-2.101-4.875-4.742-6.060zM10.425 6.433c-0.197 0-0.39-0.056-0.554-0.162s-0.292-0.256-0.367-0.431c-0.075-0.176-0.095-0.369-0.057-0.555s0.133-0.358 0.273-0.492 0.317-0.226 0.51-0.263c0.193-0.037 0.394-0.018 0.576 0.055s0.338 0.196 0.447 0.354c0.11 0.158 0.168 0.344 0.168 0.534-0.001 0.255-0.106 0.499-0.293 0.679s-0.44 0.281-0.704 0.282zM18.145 6.433c-0.197 0-0.39-0.056-0.554-0.162s-0.292-0.256-0.367-0.431c-0.075-0.176-0.095-0.369-0.057-0.555s0.133-0.358 0.273-0.492 0.317-0.226 0.51-0.263c0.193-0.037 0.394-0.018 0.576 0.055s0.338 0.196 0.447 0.354 0.168 0.344 0.168 0.534c-0.001 0.255-0.106 0.499-0.293 0.679s-0.44 0.281-0.704 0.282zM26.421 10.030c-1.119 0-2.023 0.886-2.023 1.979v7.728c0 1.089 0.908 1.979 2.023 1.979 1.119 0 2.023-0.886 2.023-1.979v-7.732c0.004-1.093-0.9-1.975-2.023-1.975zM2.022 10.030c-1.119 0-2.023 0.886-2.023 1.979v7.728c0 1.089 0.908 1.979 2.023 1.979 1.119 0 2.023-0.886 2.023-1.979v-7.732c0-1.093-0.908-1.975-2.023-1.975z"></path>
</symbol>
<symbol id="icon-arrow" viewBox="0 0 18 32">
<path fill="#fff" style="fill: var(--color1, #fff)" d="M0.914 26.286l10.286-10.286-10.286-10.286 2.057-4.114 14.4 14.4-14.4 14.4-2.057-4.114z"></path>
</symbol>
</defs>
</svg>
