<svg aria-hidden="true" style="position: absolute; width: 0; height: 0; overflow: hidden;" version="1.1" xmlns="http://www.w3.org/2000/svg" xmlns:xlink="http://www.w3.org/1999/xlink">
<defs>
<symbol id="icon-facebook-hv" viewBox="0 0 20 32">
<path stroke-linejoin="round" stroke-linecap="round" stroke-miterlimit="4" stroke-width="1.7778" d="M17.778 1.185h-4.444c-1.965 0-3.849 0.78-5.238 2.17s-2.17 3.273-2.17 5.238v4.444h-4.444v5.926h4.444v11.852h5.926v-11.852h4.444l1.482-5.926h-5.926v-4.444c0-0.393 0.156-0.77 0.434-1.048s0.655-0.434 1.048-0.434h4.444v-5.926z"></path>
</symbol>
<symbol id="icon-twitter-hv" viewBox="0 0 41 32">
<path stroke-linejoin="round" stroke-linecap="round" stroke-miterlimit="4" stroke-width="2.1333" d="M38.045 1.065c-1.579 1.114-3.327 1.965-5.176 2.522-0.993-1.142-2.312-1.951-3.78-2.318s-3.013-0.275-4.426 0.265c-1.414 0.539-2.627 1.5-3.477 2.752s-1.295 2.734-1.274 4.247v1.649c-2.897 0.075-5.768-0.567-8.356-1.87s-4.815-3.226-6.48-5.597c0 0-6.594 14.836 8.242 21.43-3.395 2.305-7.439 3.46-11.539 3.297 14.836 8.242 32.97 0 32.97-18.958-0.002-0.459-0.046-0.917-0.132-1.368 1.683-1.659 2.87-3.754 3.429-6.050z"></path>
</symbol>
<symbol id="icon-linkedin-hv" viewBox="0 0 32 32">
<path stroke-linejoin="miter" stroke-linecap="butt" stroke-miterlimit="4" stroke-width="1.7778" d="M30.666 19.701v10.521h-4.663v-9.222c0-1.166-0.001-2.721-0.5-3.981-0.26-0.656-0.669-1.277-1.316-1.727-0.648-0.452-1.459-0.68-2.427-0.68-0.954 0-1.77 0.187-2.45 0.563-0.684 0.379-1.176 0.921-1.52 1.545-0.665 1.206-0.787 2.738-0.787 4.108v9.396h-4.666v-18.993h4.408v2.833h1.515l0.25-0.474c0.715-1.355 2.524-2.88 5.316-2.88 3.045 0 4.647 0.983 5.56 2.432 0.971 1.543 1.279 3.789 1.279 6.561zM6.52 30.222h-4.672v-18.993h4.672v18.993zM4.18 6.618c-1.56 0-2.847-1.3-2.847-2.882 0-0.755 0.3-1.479 0.834-2.013s1.258-0.834 2.013-0.834c0.755 0 1.479 0.3 2.013 0.834s0.834 1.258 0.834 2.013c0 1.582-1.286 2.882-2.847 2.882z"></path>
</symbol>
<symbol id="icon-apple" viewBox="0 0 27 32">
<path fill="#fff" style="fill: var(--color1, #fff)" d="M20.372 7.314c-2.881 0-4.098 1.384-6.104 1.384-2.057 0-3.626-1.374-6.122-1.374-2.443 0-5.049 1.502-6.704 4.061-2.323 3.608-1.929 10.404 1.834 16.193 1.346 2.072 3.143 4.397 5.501 4.422h0.043c2.049 0 2.658-1.351 5.478-1.367h0.043c2.778 0 3.335 1.359 5.375 1.359h0.043c2.358-0.025 4.252-2.6 5.598-4.665 0.969-1.485 1.329-2.23 2.072-3.91-5.443-2.080-6.318-9.85-0.934-12.829-1.643-2.072-3.952-3.272-6.129-3.272l0.007-0.003z"></path>
<path fill="#fff" style="fill: var(--color1, #fff)" d="M20.055 0c-1.658 0.111-3.593 1.148-4.726 2.502-1.028 1.227-1.874 3.047-1.542 4.813h0.133c1.766 0 3.573-1.045 4.629-2.383 1.017-1.274 1.788-3.079 1.506-4.931z"></path>
</symbol>
<symbol id="icon-close" viewBox="0 0 32 32">
<path fill="#fff" style="fill: var(--color1, #fff)" d="M23.884 6.706l-7.884 7.884-7.884-7.884c-0.19-0.174-0.439-0.267-0.696-0.261s-0.502 0.11-0.684 0.292c-0.182 0.182-0.286 0.427-0.292 0.684s0.088 0.506 0.261 0.696l7.88 7.884-7.882 7.882c-0.096 0.092-0.173 0.202-0.226 0.324s-0.081 0.253-0.083 0.386 0.023 0.265 0.073 0.388c0.050 0.123 0.124 0.235 0.218 0.329s0.206 0.169 0.329 0.219 0.255 0.075 0.388 0.074c0.133-0.002 0.264-0.029 0.386-0.082s0.232-0.13 0.324-0.226l7.886-7.882 7.884 7.884c0.19 0.174 0.439 0.267 0.696 0.262s0.502-0.11 0.684-0.292c0.182-0.182 0.286-0.427 0.292-0.684s-0.088-0.506-0.262-0.696l-7.884-7.884 7.884-7.886c0.096-0.092 0.173-0.202 0.226-0.324s0.081-0.253 0.083-0.386c0.002-0.133-0.023-0.265-0.073-0.388s-0.124-0.235-0.218-0.329c-0.094-0.094-0.206-0.169-0.329-0.219s-0.255-0.075-0.388-0.074-0.264 0.029-0.386 0.082c-0.122 0.053-0.232 0.13-0.324 0.226v0.002z"></path>
</symbol>
<symbol id="icon-Burger" viewBox="0 0 52 32">
<path fill="none" stroke="#fff" style="stroke: var(--color1, #fff)" stroke-linejoin="miter" stroke-linecap="round" stroke-miterlimit="4" stroke-width="4" d="M2 2h48"></path>
<path fill="none" stroke="#fff" style="stroke: var(--color1, #fff)" stroke-linejoin="miter" stroke-linecap="round" stroke-miterlimit="4" stroke-width="4" d="M2 16h48"></path>
<path fill="none" stroke="#fff" style="stroke: var(--color1, #fff)" stroke-linejoin="miter" stroke-linecap="round" stroke-miterlimit="4" stroke-width="4" d="M2 30h48"></path>
</symbol>
<symbol id="icon-linkedin" viewBox="0 0 32 32">
<path fill="#fff" style="fill: var(--color1, #fff)" d="M8.268 28h-5.805v-18.694h5.805v18.694zM5.362 6.756c-1.856 0-3.362-1.538-3.362-3.394 0-0.892 0.354-1.747 0.985-2.377s1.486-0.985 2.377-0.985c0.892 0 1.747 0.354 2.377 0.985s0.985 1.486 0.985 2.377c0 1.856-1.506 3.394-3.362 3.394zM29.994 28h-5.792v-9.1c0-2.169-0.044-4.95-3.018-4.95-3.018 0-3.481 2.356-3.481 4.794v9.256h-5.799v-18.694h5.567v2.55h0.081c0.775-1.469 2.668-3.019 5.492-3.019 5.875 0 6.955 3.869 6.955 8.894v10.269h-0.005z"></path>
</symbol>
<symbol id="icon-twitter" viewBox="0 0 38 32">
<path fill="#fff" style="fill: var(--color1, #fff)" d="M38.045 1.066c-1.579 1.113-3.327 1.965-5.176 2.522-0.993-1.142-2.312-1.951-3.78-2.318s-3.013-0.275-4.426 0.265c-1.414 0.539-2.627 1.5-3.477 2.752s-1.295 2.734-1.274 4.247v1.649c-2.897 0.075-5.768-0.567-8.356-1.87s-4.815-3.226-6.48-5.597c0 0-6.594 14.836 8.242 21.43-3.395 2.304-7.439 3.46-11.539 3.297 14.836 8.242 32.97 0 32.97-18.958-0.002-0.459-0.046-0.917-0.132-1.368 1.683-1.659 2.87-3.754 3.429-6.050z"></path>
</symbol>
<symbol id="icon-facebook" viewBox="0 0 18 32">
<path fill="#fff" style="fill: var(--color1, #fff)" d="M17.778 1.185h-4.444c-1.965 0-3.849 0.78-5.238 2.17s-2.17 3.273-2.17 5.238v4.444h-4.444v5.926h4.444v11.852h5.926v-11.852h4.444l1.482-5.926h-5.926v-4.444c0-0.393 0.156-0.77 0.434-1.048s0.655-0.434 1.048-0.434h4.444v-5.926z"></path>
</symbol>
<symbol id="icon-android" viewBox="0 0 28 32">
<path fill="#fff" style="fill: var(--color1, #fff)" d="M5.26 24.204c0 0.836 0.708 1.518 1.578 1.518h1.804v4.3c0 1.089 0.908 1.979 2.023 1.979 1.119 0 2.023-0.886 2.023-1.979v-4.303h3.149v4.3c0 1.089 0.908 1.979 2.023 1.979 1.119 0 2.023-0.886 2.023-1.979v-4.3h1.804c0.871 0 1.578-0.682 1.578-1.518v-14.114h-18.005v14.117zM18.49 2.773l1.663-2.321c0.096-0.136 0.074-0.318-0.056-0.407-0.13-0.086-0.315-0.043-0.411 0.093l-1.726 2.414c-1.137-0.432-2.404-0.671-3.734-0.671s-2.597 0.239-3.734 0.671l-1.726-2.411c-0.096-0.136-0.282-0.182-0.411-0.093-0.13 0.086-0.152 0.264-0.056 0.407l1.663 2.321c-2.645 1.186-4.497 3.432-4.735 6.057h18.005c-0.245-2.628-2.101-4.875-4.742-6.060zM10.425 6.433c-0.197 0-0.39-0.056-0.554-0.162s-0.292-0.256-0.367-0.431c-0.075-0.176-0.095-0.369-0.057-0.555s0.133-0.358 0.273-0.492 0.317-0.226 0.51-0.263c0.193-0.037 0.394-0.018 0.576 0.055s0.338 0.196 0.447 0.354c0.11 0.158 0.168 0.344 0.168 0.534-0.001 0.255-0.106 0.499-0.293 0.679s-0.44 0.281-0.704 0.282zM18.145 6.433c-0.197 0-0.39-0.056-0.554-0.162s-0.292-0.256-0.367-0.431c-0.075-0.176-0.095-0.369-0.057-0.555s0.133-0.358 0.273-0.492 0.317-0.226 0.51-0.263c0.193-0.037 0.394-0.018 0.576 0.055s0.338 0.196 0.447 0.354 0.168 0.344 0.168 0.534c-0.001 0.255-0.106 0.499-0.293 0.679s-0.44 0.281-0.704 0.282zM26.421 10.030c-1.119 0-2.023 0.886-2.023 1.979v7.728c0 1.089 0.908 1.979 2.023 1.979 1.119 0 2.023-0.886 2.023-1.979v-7.732c0.004-1.093-0.9-1.975-2.023-1.975zM2.022 10.030c-1.119 0-2.023 0.886-2.023 1.979v7.728c0 1.089 0.908 1.979 2.023 1.979 1.119 0 2.023-0.886 2.023-1.979v-7.732c0-1.093-0.908-1.975-2.023-1.975z"></path>
</symbol>
<symbol id="icon-arrow" viewBox="0 0 18 32">
<path fill="#fff" style="fill: var(--color1, #fff)" d="M0.914 26.286l10.286-10.286-10.286-10.286 2.057-4.114 14.4 14.4-14.4 14.4-2.057-4.114z"></path>
</symbol>
</defs>
</svg>
